<svg version="1.1" xmlns="http://www.w3.org/2000/svg" xmlns:xlink="http://www.w3.org/1999/xlink" width="995.45307" height="903.30303" viewBox="0,0,995.45307,903.30303"><g transform="translate(286.05552,312.30303)"><g data-paper-data="{&quot;isPaintingLayer&quot;:true}" fill-rule="nonzero" stroke="none" stroke-width="0.5" stroke-linecap="butt" stroke-linejoin="miter" stroke-miterlimit="10" stroke-dasharray="" stroke-dashoffset="0" style="mix-blend-mode: normal"><path d="M112.95747,-130.01427l1.7796,-0.91023l1.74247,-0.97943l16,-7l3.13887,-1.01496l3.38774,-1.41156l3.01623,0.61043l3.16168,-0.33114l10.84805,3.35506l1.03248,1.28629l67.97328,-74.44691l0.29964,-0.26878l0.25072,-0.31491l35.13143,-36.08093l2.6914,-4.30624l0.21395,-0.67242l0.90916,-1.05271l2.16744,-2.80273l0.94995,-0.80689l3.39533,-3.93143l1.80867,-0.48883l0.71948,-0.61113l6.28672,-1.9436l29.23825,-31.78722l0.3909,-0.34805l0.33143,-0.40508l7,-7l3.03835,-2.48592l0.07738,-0.04003l0.06243,-0.06075l3.31916,-2.09632l2,-1l2.01096,-0.76608l1.57406,-0.89566l6.39535,-0.72589l2.59751,-0.40745l0.30649,0.07784l1.98323,-0.2251l2.71432,1.41813l6.0016,1.52421l2.68412,3.01375l1.86969,0.97684l2.40242,3.81991l3.00126,3.36984l0.41844,2.06758l2.14856,3.41626l-0.20469,6.18875l0.60747,3.0016l-0.76768,1.84243l-0.01045,0.31605l-1.11365,2.38178l-2.47554,5.94131l-1.29802,1.26294l-1.29503,1.71864l-11.80305,12.78664l-31.95042,36.26805l0.84745,-0.20054l1.76732,0.3069l3.46425,-0.25348l2.1333,1.22551l3.82274,0.66383l3.94631,3.79924l3.07968,1.76918l1.53692,2.67538l0.04289,0.04129l0.23018,-0.33038l1.05474,-1.23163l0.09131,-0.15585l0.71575,-0.78654l0.69173,-0.80774l0.14333,-0.10992l1.09136,-1.1993l8.91597,-8.02436l1.86032,-2.46258l0.78281,-0.84597l0.01989,-0.03289l0.93462,-0.99863l0.92894,-1.0039l0.03138,-0.02221l0.78758,-0.84152l8,-7l1.35129,-0.96299l0.47201,-0.38619l0.25493,-0.13187l1.11875,-0.79727l2.67619,-1.16563l3.96032,-2.04844l0.8927,-0.06532l0.73884,-0.32181l4.01429,-0.02598l5.67892,-0.41553l0.65201,0.37456l1.00958,-0.00654l6.36135,4.2409l4.9591,2.84884l0.42569,0.74102l0.71105,0.47404l2.51267,5.13762l3.80835,6.62936l-0.07367,1.00691l0.33035,0.67547l-0.79237,5.63871l-0.29295,4.00366l-0.37024,0.7158l-0.12456,0.88639l-2.30734,3.81528l-1.34107,2.59273l-0.86992,1.06324l-0.14853,0.2456l-0.41673,0.44527l-1.05074,1.28424l-3.64084,3.64084l-2.72107,2.95166l-0.95508,1.91017l-0.88461,1.40064l-0.78917,1.45655l-18.82549,27.74283l-15.67546,24.38406l6.21556,-0.90408l0.14913,-0.00668l0.14527,-0.03436l74.47804,-9.9304l84.48142,-14.90849l0.56217,-0.04225l0.54899,-0.12817l23,-3l1.6204,-0.04868l1.61308,-0.16131h7l0.24705,0.02471l1.15049,-0.18047l1.91935,0.48746l0.58935,0.05893l1.41314,0.44964l7.0838,1.79906l1.55138,1.74189l7.13918,6.16566l0.71794,2.65637l0.54899,0.61641l1.13993,5.6326l1.49939,5.54774l-0.21537,0.79685l0.54583,2.697l-3.62811,8.70748l-0.6086,2.25179l-5.53138,4.77711l-1.06286,1.03413l-0.50078,0.31629l-1.49873,1.29435l-1.10974,0.3531l-0.20992,0.13258l-2,1l-2.28129,0.86906l-2.03469,0.78382l0.13564,-0.01356h22.55682l2.77967,-3.21858l1.8639,-2.55745l0.70919,-0.42192l1.63729,-1.8958l2.83898,-0.76729l4.57313,-2.72073l4.52498,0.26178l2.51603,-0.68001l3.88648,1.0504l4.01921,0.23252l2.17188,1.44075l4.37555,1.18258l3.47808,4.02726l2.45066,1.62568l0.95376,2.31627l0.53937,0.62454l0.95952,3.01563l1.87078,4.54332l-0.02402,1.75376l0.31873,3.1873v2l-0.39062,3.90625l-0.02642,0.08302l-0.00119,0.08711l-0.86469,3.82932l-0.74708,2.24125l-0.05107,6.90264l-0.04783,0.445l0.02531,0.44684l-2.15363,49.9536l-0.15123,1.05214l-0.03012,1.06253l-12.70263,98.68971l0.90514,0.57167l0.21768,0.10384l0.25081,0.19205l0.26708,0.16868l0.17285,0.16818l2.42617,1.85776l16,15l2.5611,2.93202l0.00902,0.00856l0.00578,0.00838l0.00669,0.00766l0.00607,0.01086l2.20877,3.20583l8.98322,16.30287l0.8745,0.35608l0.50549,0.34218l1.58006,0.70317l0.91309,0.9845l0.25228,0.17078l6,5l0.79498,0.80943l0.87808,0.71843l7,7l0.91657,1.12026l1.0069,1.03984l19,24l1.05447,1.64522l0.16489,0.18342l0.43247,0.74861l0.46653,0.72789l0.08725,0.23069l0.97752,1.69207l14,31l0.07724,0.22961l0.11712,0.21207l9,21l1.07082,3.39869l0.04911,0.1137l0.02374,0.11753l0.03603,0.11437l0.01198,0.12327l0.70563,3.49283l2,20v3.28886l0.02162,0.19464l-0.02162,0.22059v0.22165l-0.04052,0.1916l-0.3209,3.27317l-3,15l-1.14911,3.75379l-0.28199,0.50956l-0.14439,0.5642l-1.73906,3.51952l-6.28106,10.04969l-4.83095,17.39143l-0.73033,1.87953l-0.65864,1.90583l-6,13l-1.99162,3.38302l-0.32348,0.35395l-0.22029,0.4259l-2.48592,3.03835l-8,8l-3.03835,2.48592l-0.07738,0.04003l-0.06244,0.06075l-1.40507,0.88741l-36.63635,35.74277l-1.20378,0.96035l-1.12723,1.04916l-1.5789,1.19996l-0.65085,7.15938l-0.42332,2.19727l-0.01134,0.27835l-0.17428,0.68509l-0.13373,0.69414l-0.10816,0.25673l-0.55167,2.16861l-1.64006,4.51017l-0.04696,0.9007l0.01418,0.22459l-0.04022,0.27485l-0.01446,0.2774l-0.05795,0.21745l-0.4558,3.11466l-1.4843,5.93718l0.18957,1.04863l0.65054,2.04455l0.34778,3.47779l0.2243,1.24076l-0.18146,0.79116v13.39654l-0.16853,1.68525l-0.06072,1.69258l-3,22l-0.45303,1.89056l-0.01774,0.24444l-0.24122,0.83626l-0.20283,0.84639l-0.10519,0.22137l-0.53882,1.86791l-6,15l-0.72907,1.39983l-0.05016,0.16228l-0.53052,0.95261l-0.50368,0.96706l-0.10793,0.13116l-0.76792,1.3789l-16,23l-0.37705,0.44092l-0.30542,0.49325l-23,30l-1.52847,1.62841l-1.49487,1.65931l-11,10l-1.79701,1.33278l-1.76983,1.36868l-8,5l-1.08684,0.53702l-0.13784,0.08668l-0.14777,0.05444l-0.46249,0.22852l-1.72482,1.14988l-1.79468,0.33344l-2.47227,0.81472l-1.01698,0.226l-0.84324,0.31066l-0.45061,-0.02314l-6.68917,1.48648l-1.39962,0.16734l-0.11739,0.03736l-1.19174,0.11918l-1.18922,0.14219l-0.1227,-0.011l-1.40259,0.14026h-5.86491l-1.12884,0.17495l-1.75934,-0.45026l-1.15316,-0.11532l-1.97741,-0.62918l-6.02331,2.00778l-0.40281,0.26854l-0.91005,0.16908l-0.87447,0.29148l-3.82932,0.86469l-1.64007,0.02247l-1.61263,0.29962l-3.92454,-0.0969l-0.91465,-0.11433l-0.92554,0.01268l-0.44765,-0.18433l-5.71216,-0.71402l-3.82763,-0.87212l-0.27934,-0.12893l-0.30394,-0.04768l-3.66855,-1.39754l-2,-1l-1.83083,-1.15631l-0.10557,-0.04872l-0.03765,-0.04173l-1.34512,-0.84955l-0.06243,-0.06075l-0.07738,-0.04003l-3.03835,-2.48592l-3,-3l-0.32256,-0.39423l-1.14953,-0.91113l-0.79069,-1.46025l-0.22314,-0.27274l-1.61079,-3.11419l-1.66944,-3.08316l-0.10005,-0.33788l-0.76291,-1.47496l-0.10704,-1.46292l-0.14463,-0.4884l-4,-21l-0.23627,-2.66108l-0.06185,-0.27587l-0.00593,-0.48764l-0.04313,-0.48577l0.0338,-0.28069l-0.03252,-2.67136l2.72225,-31.03361l-1.72413,-0.17242l-1.4509,-0.46165l-1.51002,-0.19523l-3.70497,-1.29791l-1.11909,-0.52224l-0.80878,-0.25734l-0.30252,-0.26126l-1.19589,-0.55809l-2.00043,0.85733l-8.84771,3.93231l-2.55241,0.84175l-0.25377,0.12257l-0.46613,0.11485l-0.45592,0.15035l-0.28011,0.03098l-2.60959,0.64294l-7,1l-1.77137,0.07485l-1.76416,0.17642h-37.34256l-8.65352,0.45545l-31.85879,9.50175l-1.53069,0.29467l-1.50446,0.40799l-21.12391,3.52065l-1.48757,1.63632l-2.91666,2.62763l-0.59201,0.34284l-0.49032,0.47707l-3.31916,2.09632l-4,2l-1.12883,0.43003l-3.0105,1.79106l-3.49161,-0.202l-4.94694,0.77599l-5.41604,-1.3755l-1.09211,-0.06318l-0.52316,-0.34705l-3.97433,-1.00935l-2.87153,-3.22418l-0.12282,0.01926l-0.40652,-0.10324l-0.37853,0.04732l-4.2781,-1.22995l-5.94249,-1.50921l-0.23855,-0.26785l-0.45383,-0.13047l-5.17766,-6.19261l-3.57779,-4.01716l-0.28371,0.32353l-0.39642,0.60712l-27.37869,33.98734l-0.12702,0.30485l-0.54829,0.53348l-0.94599,1.17433l-2.75471,2.79696l-1.191,0.78821l-1.02363,0.99596l-1.02621,0.64813l-1.02017,1.18125l-1.60825,0.43466l-1.0133,0.50666l-0.63795,0.42219l-0.51164,0.09327l-3.1702,1.20769l-6.95224,1.09055l-0.55955,0.15123l-0.14856,-0.04016l-1.24898,0.19592l-11.00565,-2.79508l-0.8362,-0.9389l-1.21374,-0.32803l-7.42187,-8.59375l-0.38333,-1.20474l-0.10235,-0.11492l-0.11497,-0.56812l-2.13372,-6.70597l-0.39062,-3.90625v-1.861l-0.33046,-1.63285l0.30469,-0.73127l0.25679,-1.08515l0.1596,-1.59598l0.85096,-2.67445l0.6463,-2.73113l0.68427,-1.45066l0.55284,-1.73751l0.72148,-0.8354l2.71619,-4.527l0.35624,-0.47838l0.27983,-0.52673l6,-9l0.38591,-0.46981l0.31094,-0.52246l2.55459,-3.45621l-11.11143,-2.56418l-4.32731,4.97471l-27.24737,48.20689l-0.82392,1.16857l-0.72175,1.23429l-3.33945,4.59174l-1.02502,1.84504l-1.56243,2.25097l-0.1279,0.24727l-0.28843,0.35253l-0.25974,0.37419l-0.20262,0.19091l-1.73513,2.12072l-2,2l-3.03835,2.48592l-1.60444,0.82989l-2.69592,1.98198l-2.07263,0.48451l-1.6372,0.84682l-2.8899,0.21146l-4.45721,1.04195l-1.57285,-0.60072l-2.40479,0.17596l-5.68421,-3.26539l-4.32446,-1.65165l-1.24809,-1.5496l-1.7253,-0.99113l-2.30588,-4.01395l-4.11196,-5.10537l-0.20125,-2.40282l-0.83867,-1.45991l0.33404,-4.56517l-0.24185,-2.88752l0.58113,-1.74924l0.15533,-2.12283l1.53726,-2.97205l0.5695,-1.71424l1.98163,-3.38888l2.86886,-3.94468l2.49561,-4.4921l0.08625,-0.12426l0.06161,-0.13815l4.71604,-8.25305l-0.26352,-0.52215l-0.33457,-5.29742l-0.41187,-1.52389l0.25584,-0.94659l-0.07784,-1.23244l0.56844,-3.88436l1,-4l0.48076,-1.33926l0.36458,-1.37543l3,-8l0.17673,-0.35811l0.11455,-0.38256l0.67044,-1.62822l-0.97555,0.26606l-0.68162,0.11461l-0.65808,0.21136l-28,6l-1.2579,0.14074l-0.07408,0.02357l-1.28551,0.12855l-1.28391,0.14365l-0.07737,-0.00752l-1.25947,0.12595h-0.8233l-4.77744,6.25846l0.96703,1.06268l0.37741,0.64423l0.52066,0.53513l2.09632,3.31916l0.08281,0.16563l0.65026,0.56158l0.43466,1.60825l0.83227,1.66454l1.39754,3.66855l1.09055,6.95224l0.15123,0.55955l-0.04015,0.14857l0.19592,1.24897l-2.79508,11.00565l-0.9389,0.8362l-0.32803,1.21373l-8.59375,7.42188l-1.20473,0.38333l-0.11492,0.10235l-0.56812,0.11498l-6.70597,2.13372l-3.90625,0.39063h-1.861l-1.63285,0.33046l-1.50997,-0.62915l-0.03639,-0.00533l-0.86603,-0.0866l-0.23355,-0.07431l-1.92359,-0.2815l-2.74885,-0.68721l-2.68704,-0.38386l-0.03666,0.00636l-0.12372,-0.02928l-2.87588,-0.41084l-0.22212,-0.05473l-29.37049,38.47535l-2.55504,2.73352l-0.04067,0.05305l-0.04476,0.03834l-0.04024,0.04305l-0.05476,0.03833l-2.84157,2.43431l-31.33573,21.84006l-1.50596,1.74374l-2.33543,0.6312l-1.25092,0.6981l-8.61379,2.67057l-1.87687,-0.19528l-0.37612,0.10166l-0.84694,-0.2289l-8.19415,-0.85253l-2.39449,-2.00927l-3.01755,-0.81556l-4.3255,-5.00848l-15.84507,10.03521l-3.50907,1.76004l-0.9102,0.23874l-0.83347,0.43681l-3.77893,1.06353l-17,3l-2.17466,0.16341l-2.16997,0.21699h-3l-3.90625,-0.39062l-8.59375,-2.73437l-0.42702,-0.36879l-1.52611,-0.41246l-3.07737,-3.56326l-3.56326,-3.07736l-0.41246,-1.52611l-0.36879,-0.42702l-2.73437,-8.59375l-0.39062,-3.90625v-7l0.21392,-2.13926l0.15578,-2.14427l0.28117,-1.61675l-0.85978,0.27357l-4.6661,1.62671l-1.84949,-0.12755l-1.27551,0.12755h-4l-3.90625,-0.39062l-8.59375,-2.73437l-0.42702,-0.36879l-1.52611,-0.41246l-3.07736,-3.56326l-3.56326,-3.07736l-0.41246,-1.52611l-0.36879,-0.42702l-2.73437,-8.59375l-0.39062,-3.90625v-2l0.27265,-2.72649l-0.00829,-0.27827l0.08094,-0.44825l0.04532,-0.45324l0.08441,-0.26529l0.48687,-2.69649l1.88556,-6.59947l2.75469,-11.01875l1.84032,-9.20163l3.8636,-21.2498l13.92613,-101.46182l0.14113,-0.58668l0.05115,-0.60125l3.7957,-20.33414l-0.43786,0.2788l-1.33911,-0.03683l-11.13886,0.81503l-2.05014,-1.17773l-0.43793,-0.01205l-5.19373,-3.22316l-5.30025,-3.04483l-0.21822,-0.37988l-2.00893,-1.24671l-4.56332,-10.19386l-0.66729,-1.16159l0.33367,-4.56027l-0.38812,-0.34567l-4.33184,-3.17231l-0.48797,-1.12033l-2.35099,-2.09385l-2.01259,-7.92458l-1.12698,-2.58745l1.71506,-9.23107l0.02697,-0.17189l0.0097,-0.02548l0.32245,-1.73555l0.79032,-1.18549l0.27506,-0.72204l14,-28l1.35146,-2.13982l-7.48588,-36.68084l-0.0554,-0.54315l-0.13901,-0.52797l-1.36378,-8.57234l-2.39579,1.44889l-2.87324,2.87324l-2.47914,2.02838l-1.22311,1.25708l-4.53545,1.88977l-2.81085,1.45389l-0.82301,0.06022l-2.31226,0.96344l-2.88241,-0.58334l-5.30708,0.38832l-3.93019,-2.25777l-2.55452,-0.51699l-3.00643,-2.67759l-3.24262,-1.86279l-4.4207,2.55936l-8.91966,6.17515l-2.52883,1.40086l-0.21346,0.15557l-0.35318,0.15832l-0.33857,0.18755l-0.25253,0.07743l-2.63798,1.18255l-3,1l-0.24219,0.05469l-1.03439,0.53502l-1.975,0.14452l-0.57775,0.13046l-1.48281,0.02031l-7.2892,0.53336l-2.0226,-1.16191l-8.72258,-3.59165l-1.52112,-2.29303l-0.71574,-0.41117l-2.86262,-4.98308l-3.1768,-4.7889l-0.04767,-0.82407l-1.37068,-2.386l0.68838,-9.40794l-0.13472,-2.3287l3.73688,-6.28114l0.6813,-1.31717l0.37507,-0.45842l1.0125,-1.70186l0.94114,-0.68591l0.15722,-0.19216l2,-2l3.03835,-2.48592l0.07738,-0.04003l0.06243,-0.06075l3.31916,-2.09632l5.31613,-2.65806l3.2143,-1.86091l15.21798,-10.53552l28.7656,-20.76127l0.21861,-0.69746l-21.97435,5.993l-1.35234,0.22739l-1.32653,0.34759l-19,3l-1.9528,0.1113l-1.94627,0.19463h-7.17412l-0.6275,0.16604l-1.13208,-0.16604h-0.0663l-3.90625,-0.39062l-1.11953,-0.35621l-5.01068,-0.7349l-1.44414,-1.31891l-1.0194,-0.32435l-8.59375,-7.42187l-2.08224,-7.70426l-2.37953,-7.61769l3.2656,-10.87532l0.68589,-0.82093l0.51028,-1.88804l3.83277,-3.31011l0.75326,-0.90157l3.08584,-2.42672l0.05593,-0.0356l0.86595,-0.74787l0.61854,-0.1968l7.68151,-4.88824l48.67244,-43.9924l10.10532,-13.39806l-0.75815,-0.28882l-0.36183,-0.18091l-0.95783,-0.30477l-0.47892,-0.4136l-0.20143,-0.10072l-1.05836,-0.66844l-2.21443,-0.59849l-4.24103,-4.91067l-2.26898,-2.20765l-0.33781,-0.81072l-0.57406,-0.6647l-0.95987,-3.01673l-2.49559,-5.98941l0.45501,-2.2483l-0.12455,-1.24555v-3l0.39063,-3.90625l0.02641,-0.08301l0.00119,-0.08711l0.86469,-3.82932l3,-9l0.48148,-1.07407l0.0103,-0.04605l0.56133,-1.22913l0.55273,-1.23302l0.0278,-0.03814l0.48897,-1.07068l14,-24l0.74004,-1.0198l0.63603,-1.08771l24,-33l0.86619,-0.9709l0.76986,-1.04893l8.88306,-9.87006l6.52192,-7.45361l3.65566,-4.56958l0.96773,-0.98924l0.87632,-1.07106l2.43337,-2.43336l1.55016,-2.25762l2.15958,-0.84912l7.90544,-4.08902l3.06448,-0.22423l0.80386,-0.31607l1.12982,0.17458l6.32659,-0.46292l3.43018,1.97052l3.0821,0.47625l54.40572,-62.69612l6.84667,-9.86726l1.44861,-1.69812l1.41342,-1.72752l13.81253,-13.81252l5.98322,-6.89495l1.27359,-1.20181l0.12578,-0.16806l0.74,-0.64892l0.71584,-0.67549l0.17918,-0.10937l1.31659,-1.15454l1.81634,-1.29738l0.03695,-0.03695l3.03835,-2.48592l0.07738,-0.04003l0.06244,-0.06075l3.31916,-2.09632l2,-1l3.66855,-1.39754l1.78455,-0.27993l3.18433,-1.02775l2.11948,0.19578l1.82097,-0.28565l2.80848,0.71327l4.55796,0.42101l1.30218,1.06728l2.33703,0.59353l4.3599,4.89533l3.58024,2.9344l0.69401,1.86476l1.32334,1.48585l0.91823,4.53715l2.28649,6.14369l-0.56892,2.34315l0.33398,1.65021l-1.76053,4.22527l-0.68367,2.81582l-1.10446,1.47571l-0.81866,1.96478l-2.39821,2.3334l-1.08237,1.44618l-2.9516,2.58832l-1.81633,1.29738l-7.97447,7.97448l-20.58946,23.72691l-21.94177,31.62197l4.18773,-4.66482l1.01158,-0.92287l0.06629,-0.08902l0.91819,-0.80912l0.90411,-0.82482l0.09569,-0.05622l1.02734,-0.9053l39,-28l0.64423,-0.37144l0.58611,-0.4577l19,-12l1.67357,-0.83678l0.1883,-0.13724l0.83296,-0.37339l0.81646,-0.40823l0.22545,-0.05883l1.7074,-0.76539l3,-1l3.82932,-0.86469l2.66394,-0.03649l1.41244,-0.38174l1.27616,0.34491l3.6649,-0.05021l7.35517,3.0286l2.15689,0.58294l0.40903,0.47361l0.57865,0.23827l1.2351,1.86187l5.19909,6.02l0.96946,3.04689l0.03387,0.03291l0.04429,0.21272l0.06369,0.20018l0.73077,1.10161l0.08451,1.46067l0.80779,2.53877l0.01058,0.10577l3.26593,-0.08316l1.73835,1.11182l3.02743,0.52573l4.36508,4.2024l3.48175,2.22687l1.13964,2.22229l1.79918,1.73213l0.73425,2.58792zM629.83541,224.71693l-0.00707,-0.00652l-0.13708,0.37207l1.4129,1.0008zM-47.78484,477.45432l-22.05854,43.50435l15.89337,-10.0658l0.83194,-1.77805l15.57063,-41.52166l-2.82925,-1.64096z" fill="#66e3ff"/><path d="M-53.43531,243.07859c1.43868,-1.21965 2.52898,-2.81295 3.95989,-4.04172c5.44232,-4.67352 11.83069,-5.9537 18.24317,-8.38342c4.17726,-1.58279 8.3201,-3.79177 12.826,-4.26282c8.57837,-0.89678 17.23414,-0.89678 25.8125,0c7.08249,0.74041 14.87891,4.63533 21.60036,6.1823c7.1013,1.6344 14.50271,2.28286 21.56977,3.8453c8.73472,1.93115 17.1007,4.88574 25.82932,6.86469c3.11661,0.70659 6.91405,2.7083 10.06477,2.71708c4.20046,0.0117 8.40131,0.05391 12.60169,0.03462c3.14907,-0.50536 6.33407,-0.87368 9.53085,-1.11683c4.40312,-1.37445 8.82395,-3.61868 13.16356,-4.05264c5.57558,-0.55756 11.26355,-0.70341 16.9637,-0.86515c3.14264,-0.08917 8.36734,-1.84642 11.69337,-2.58177c3.76794,-0.83305 7.8187,-0.11811 11.57425,-0.41823c1.74774,-0.13967 3.81435,-1.31 5.59588,-1.60937c2.99792,-0.50377 5.21751,-0.1654 8.09169,-0.39062c1.92887,-0.15115 3.92528,-1.33867 5.90831,-1.60937c3.11737,-0.42554 6.29081,-0.1911 9.43076,-0.39062c5.48143,-0.34831 10.90683,-1.98381 16.47549,-2c15.05416,-0.04377 31.54824,-0.15577 46.60246,-0.15577c10.56018,0 21.08037,3.85645 31.74476,3.15577c10.55912,-0.69376 20.38895,-6.32944 30.5764,-8.58177c17.837,-3.94356 34.20615,-4.57399 52.67883,-4.57399c15.06754,0 26.34571,11.03759 38.57788,17.79509c3.19831,1.76686 6.02841,3.97986 9.03433,6.02168c1.2001,0.81519 2.25933,2.76094 3.65464,2.36359c21.4937,-6.12106 40.98138,-18.8349 64.13069,-19.02459c5.77673,-0.04734 11.57304,0.47037 17.33078,0c9.34056,-0.76307 17.98646,-6.91769 27.40583,-7.89733c8.60119,-0.89454 14.32238,-0.4355 22.76202,-1.10267c9.12903,-0.72166 17.57886,-6.15577 26.89892,-6.15577c10.84249,0 22.76014,0.09571 33.60246,0.15577c16.40232,0.09086 35,5.56513 35,26c0,12.81259 -6.73149,19.80223 -17.03937,23.40533c7.61028,8.89251 9.51104,21.27443 3.91437,32.09467c-3.6924,7.13862 -15.77581,15.73706 -21.17071,19.7184c-2.54152,1.8756 -5.83298,2.99941 -7.66359,5.57353c-1.2374,1.73996 -1.83003,8.91546 -2.99981,11.9095c-0.80113,2.05048 -3.5741,4.13133 -2.56284,6.08675c1.31859,2.54969 5.16431,2.51016 7.7023,3.85115c1.7858,0.94356 4.01992,2.45135 5.54378,3.77832c3.19945,2.78609 6.22786,5.76647 9.46027,8.51425c11.59965,9.86054 30.7461,21.58081 29.66791,38.89413c-0.08038,1.29082 0.63615,2.6254 0.28314,3.86961c-1.84909,6.51728 -8.60955,15.17592 -14.48377,18.55047c-2.72313,1.56435 -8.11775,2.16738 -11.1876,1.94276c-0.91162,-0.06671 -1.77248,-0.45059 -2.66846,-0.63147c-0.23612,-0.04766 -0.80446,-0.27859 -0.72072,-0.05273c1.83642,4.95344 4.48777,8.72249 5.90638,13.7293c3.77188,13.31241 1.21263,28.6935 -9.52814,37.8598c-2.9105,2.48386 -13.72364,4.75041 -17.05558,5.06201c-1.38747,0.12976 -5.36895,-1.10976 -5.55504,-0.62633c-3.41799,8.8794 -3.41827,20.79879 -10.65233,27.90282c-2.33113,2.28922 -6.36039,5.21921 -9.28456,6.53709c-1.02903,0.46377 -3.50081,0.07953 -4.37922,0.94346c-10.23852,10.06982 -10.58612,12.55177 -24.7483,17.49543c-1.39504,0.48698 -2.61222,1.57987 -4.08245,1.72721c-6.34009,0.63537 -13.86261,-0.99407 -19.3715,-4.19604c-1.35998,-0.79047 -3.96168,-4.28184 -5.14697,-5.40689c-7.9335,-7.5303 -12.88973,-20.6186 -12.0484,-31.55579c0.3243,-4.2158 0.51219,-9.0269 1.26446,-13.39331c0.94581,-5.48981 4.19004,-11.01774 2.95242,-16.44921c-0.56605,-2.48419 -4.84975,-1.56623 -7.25133,-2.41711c-1.86686,-0.66143 -4.15015,-2.34879 -5.99601,-2.71708c-2.9574,-0.59007 -7.63314,-0.98197 -10.84227,-1.04737c-2.48634,-0.05066 -6.01207,1.98465 -8.34978,2.65675c-2.1651,0.62246 -4.31929,-0.20753 -6.41285,0.39063c-5.86426,1.67548 -11.15573,5.04742 -17.48864,5.73564c-5.76647,0.62666 -12.46114,-0.60906 -17.90766,-2.22112c-1.25477,-0.37138 -2.53089,-0.68338 -3.75379,-1.14911c-0.63659,-0.24244 -1.32454,-1.45061 -1.80167,-0.96444c-5.87205,5.98329 -13.17218,10.78625 -21.63538,12.20842c-14.42895,2.42467 -31.06977,-2.09476 -42.77375,-10.80812c-0.71815,-0.53465 -6.16375,-6.51457 -6.82492,-6.80126c-1.31736,-0.57121 -2.87334,0.06821 -4.30758,0c-1.4876,-0.07074 -3.33592,-1.50004 -4.43976,-0.50029c-15.19054,13.75818 -30.0866,21.75431 -51.12329,17.44162c-6.42638,-1.31746 -9.48558,-5.09701 -14.53266,-7.34424c-1.50838,-0.67161 -3.17037,0.96606 -4.80342,1.20985c-2.65796,0.39678 -5.32831,0.70963 -8,1c-5.4672,0.5942 -11.11397,0.75899 -16.36905,-0.63091c-0.76207,-0.20155 -0.12637,1.67749 -0.63807,2.27709c-1.40401,1.64519 -3.31464,2.78139 -4.91067,4.24103c-3.73273,3.41375 -7.51049,5.20104 -12.68922,6.6363c-0.57113,0.15828 -1.15096,-0.38635 -1.74266,-0.35269c-9.37219,0.53319 -20.63594,2.66017 -28.72662,-4.01464c-6.50342,-5.36532 -8.02145,-11.3418 -15.91748,-14.88208c-0.23982,-0.10753 -4.71658,3.89369 -5.03617,4.13288c-0.81067,0.60673 -1.64136,1.19801 -2.53598,1.67232c-4.46364,2.36653 -9.70491,4.14763 -14.62924,5.83083c-6.55733,2.24138 -13.06626,5.10331 -20.09835,5.19964c-3.77848,0.05176 -10.23516,-2.56516 -13.30425,-1.921c-1.81219,0.38036 -4.48572,3.43007 -6.32276,4.36496c-8.32011,4.23422 -22.33866,12.76015 -32.48471,13.77475c-15.19458,1.51946 -21.38348,-7.74669 -31.69563,-16.13543c-0.93416,-0.75992 -2.79371,-2.42415 -3.7984,-3.64456c-1.13337,-1.37672 -1.38326,-4.15414 -3.15899,-4.31736c-2.09319,-0.1924 -3.90693,1.58218 -5.93891,2.12025c-2.1665,0.57369 -5.88337,-0.20072 -7.50234,0.84167c-8.8547,5.70116 -17.21624,14.39013 -28.19851,16.07971c-22.82708,3.51186 -36.80435,5.85316 -58.58654,-1.13405c-4.09017,-1.31203 -7.17019,-4.28026 -11.09461,-5.8884c-0.90353,-0.37025 -1.15781,1.57928 -1.83107,2.2865c-0.90228,0.94777 -1.91889,1.77983 -2.89062,2.65625c-2.9173,2.63115 -6.64952,4.98203 -10.34331,6.3654c-12.92146,4.83925 -27.05712,2.41129 -40.05796,-0.55826c-11.71007,-2.67473 -18.53339,-12.36144 -26.5353,-20.34127c-4.34219,-4.33021 -9.31341,-7.98936 -13.37287,-12.56485c-5.59517,-6.30642 -10.19643,-14.46789 -14.49182,-21.03352c-3.03285,-4.6358 -4.14627,-11.07811 -7.24225,-15.26499c-2.98784,-4.04064 -7.31745,-6.89004 -10.99852,-10.31111c-8.64963,-8.03868 -17.16718,-16.22366 -25.99344,-24.068c-4.73696,-4.20998 -10.58219,-7.56881 -14.32521,-12.82021c-3.64891,-5.11937 -2.92786,-14.38584 -1.39754,-19.91498c2.98267,-10.77655 13.99134,-19.92896 24.41094,-23.29782c3.13227,-1.01272 5.82657,-0.77238 8.89424,-1.6652c3.35333,-0.97596 23.95259,-7.99402 35.64618,-10.84145c6.53336,-1.59089 13.62313,-2.33147 19.26105,-5.99611c-2.19487,-3.71925 -3.45418,-8.05638 -3.45418,-12.68763c0,-3.3248 0.64903,-6.49801 1.82731,-9.39985c1.30398,-3.57082 3.3371,-6.53527 6.34747,-9.09125c2.31071,-2.10376 5.01726,-3.78028 7.99481,-4.90468c14.9739,-6.86543 30.51973,-12.40832 45.81618,-18.52143c4.01729,-1.60548 8.88733,-3.06831 13.54443,-3.72299c0.5697,-0.44934 1.1594,-0.87443 1.76758,-1.2737c1.77523,-1.63107 3.70863,-3.26261 5.76689,-5.00752z" fill="#55d357"/><path d="M79.5,130.5c0.9475,0 1.77189,0.5271 2.19593,1.30407c0.29854,0.16293 0.56018,0.38497 0.76921,0.65038c1.51395,-0.08643 2.27092,1.42752 2.27092,1.42752l1.26393,3.11803c0,3.65547 -0.65301,8.00782 -0.03228,11.59954c0.52385,3.03116 1.50993,5.96513 2,9c0.3473,2.15078 -0.22742,4.10359 0.03875,6.24341c0.32919,2.6465 1.53176,5.1245 1.96125,7.75659c0.68941,4.22501 -0.38649,7.84052 1,12c0.01899,1.99991 -0.34059,4.02921 0,6c0.17951,1.0387 0.83216,1.95936 1,3c1.26506,7.84374 -1.13725,16.24388 0.01355,24.095c0.19932,1.35984 0.81018,2.6388 1,4c0.41072,2.9453 0.01873,6.32668 0.01873,9.30546c0,6.66667 0,13.33333 0,20c0,16.33333 0,32.66667 0,49c0,4.66667 0,9.33333 0,14c0,3.82865 -0.35449,6.66931 0.87171,10.20943c0,0 0.79057,2.37171 -1.58114,3.16228c-1.48179,0.49393 -2.34639,-0.24653 -2.7866,-0.87174c-0.00263,0.00003 -0.00397,0.00003 -0.00397,0.00003l-1.79057,-0.12829c-3.86614,-1.33912 -9.72017,-1.58818 -13.80897,-0.90399c-2.07928,0.34793 -3.92033,1.65445 -6,2c-2.92476,0.48597 -6.09155,-0.48668 -9,0c-3.07166,0.51399 -5.91569,2.47101 -9,3c-0.98714,0.1693 -2.01652,-0.16266 -3.00465,0.00075c-4.69296,0.77609 -8.47602,2.02012 -13.39581,2.03153c0,0 -1.5889,0 -2.23329,-1.26671c-1.26671,-0.64439 -1.26671,-2.23329 -1.26671,-2.23329c0,-25.33333 0,-50.66667 0,-76c0,-3.95541 -0.59661,-8.50114 0.03228,-12.40046c0.16784,-1.04064 0.82049,-1.9613 1,-3c0.38633,-2.23546 -0.22913,-4.54647 -0.02376,-6.80575c0.27791,-3.05733 0.56623,-6.11684 1.01748,-9.15343c0.35871,-2.41386 1.59767,-4.63491 2.00628,-7.04082c0.39069,-2.30039 -0.32235,-4.68904 0,-7c0.14562,-1.04398 0.84707,-1.95706 1,-3c0.71606,-4.88328 -0.78811,-10.11349 0,-15c0.16784,-1.04064 0.84707,-1.95706 1,-3c0.31916,-2.1766 -0.03228,-4.39967 -0.03228,-6.59954c0,-12 0,-24 0,-36v-3c0,0 0,-2.5 2.5,-2.5c1.01823,0 1.62174,0.41472 1.97945,0.90633c1.83012,-0.46842 3.75065,-0.5728 5.62009,-0.87405c3.07062,-0.49481 5.91934,-2.47162 9,-3c0.98561,-0.16905 2.0106,0.14519 3,0c2.00573,-0.29434 3.51681,-2.04124 5.38907,-2.81857c4.41072,-1.83125 9.36592,-1.21371 14.01138,-1.21371h1c0,0 0.1956,0 0.47737,0.05471c0.16855,-0.03585 0.34339,-0.05471 0.52263,-0.05471z" fill="#563e00"/><path d="M78.40551,137.01398c-6.37315,3.8696 -15.11584,4.55914 -21.90551,4.48602c-2.00137,-0.02155 -4.11983,0.51853 -6.00228,-0.16141c-1.28121,-0.46277 -2.70793,-0.85702 -4.11331,-1.30709c-3.41591,3.82262 -8.32116,6.75653 -12.22525,7.35789c-3.16945,0.4882 -6.37672,-0.90098 -9.44271,-1.8409c-4.39703,-1.34798 -10.20546,-4.97656 -13.05529,-8.70966c-0.14188,-0.18585 -0.28816,-0.37039 -0.4377,-0.55405c-6.49241,-1.3409 -16.75975,-8.13326 -19.27196,-14.50124c-0.7059,-1.78932 -0.82411,-3.72364 -0.85232,-5.67701c-5.73401,-2.95274 -9.71925,-8.52062 -11.7648,-15.23463c-1.37913,-4.52667 -0.33439,-11.07652 -0.33439,-15.87191c0,-3.90941 -0.50877,-8.95058 0.53635,-12.6223c0.50966,-1.79052 1.97628,-3.16944 2.73471,-4.86959c2.0417,-4.57685 2.28334,-7.3314 3.92876,-9.7963c0.32816,-2.21693 0.78492,-4.2806 1.22559,-5.94511c2.57368,-9.7212 6.68134,-23.7403 16.19345,-29.20221c2.53273,-1.45431 4.26337,-2.35827 5.70188,-2.92803c0.54492,-1.13842 1.15703,-2.25285 1.63076,-3.42c3.36019,-8.27862 7.55891,-19.22708 15.97686,-23.84959c0.66482,-0.36507 1.45878,-0.74134 2.33737,-1.10106c0.3244,-1.03087 0.72467,-2.08258 1.21334,-3.16403c0.88846,-1.96625 2.68197,-3.38977 4.1821,-4.94061c6.69462,-6.92092 18.96903,-10.97739 28.46114,-8.12482c0.32428,0.09745 0.63935,0.21655 0.94742,0.35209c11.94736,-7.73072 27.74913,0.74382 38.92217,6.38262c0.65757,0.33186 1.32808,0.60331 1.99759,0.8514c1.61746,-0.11688 3.1803,-0.12246 4.51052,-0.12246c4.94227,0 12.36592,1.0363 16.30888,4.35947c5.42739,4.57428 8.9535,11.96321 10.72878,18.77233c0.71122,2.72788 1.15037,5.53102 1.41975,8.33719c0.04938,0.51442 0.20005,1.17456 0.36742,1.87263c3.72584,2.90189 7.44173,9.35514 9.61835,11.96836c1.34365,1.61316 3.17524,2.79897 4.40939,4.49737c5.01761,6.90508 4.7075,7.23256 6.22868,14.4843c0.49469,2.35828 1.71604,4.70738 1.38731,7.09446c-0.41072,2.9824 -3.96357,11.14683 -6.80178,14.03875c-0.04895,0.04988 -0.09776,0.10053 -0.14643,0.1519c0.22666,0.63761 0.4415,1.31805 0.64527,2.05132c1.81943,6.54749 -0.02431,14.58687 -2.61712,20.65545c-0.48456,1.13413 -1.33654,2.10265 -1.72508,3.27316c-0.59709,1.79878 -0.40575,3.83841 -1.20585,5.55654c-1.66955,3.58524 -3.9789,6.83916 -6.11613,10.16685c-4.43025,6.89794 -11.34936,11.81984 -19.83656,12.61992c-0.03767,0.12814 -0.07647,0.25598 -0.11638,0.38352c-0.64139,2.04935 -2.62419,3.40068 -3.88172,5.14132c-2.44148,3.37943 -2.73598,5.15644 -7.09514,7.70827c-7.68159,4.49676 -18.03554,2.86686 -26.57164,2.86686c0,0 -3.02218,0 -6.09449,-1.48602z" fill="#26570f"/></g></g></svg>