<svg version="1.1" xmlns="http://www.w3.org/2000/svg" xmlns:xlink="http://www.w3.org/1999/xlink" width="647.18125" height="681.73763" viewBox="0,0,647.18125,681.73763"><g transform="translate(123.68119,188.15577)"><g data-paper-data="{&quot;isPaintingLayer&quot;:true}" fill-rule="nonzero" stroke="none" stroke-linecap="butt" stroke-linejoin="miter" stroke-miterlimit="10" stroke-dasharray="" stroke-dashoffset="0" style="mix-blend-mode: normal"><path d="M-104.91516,328.32506l-4.76518,-0.96438l-1.30663,-1.16372l-1.65124,-0.57874l-3.15341,-3.7004l-5.06906,-4.51463l-0.5187,-2.04238l-0.96964,-1.13784l-0.53481,-4.78594l-0.77193,-3.03949l0.25245,-1.60935l-0.20673,-1.85001l1.03509,-3.43081l0.31673,-2.01916l1.39754,-3.66855l1,-2l0.4553,-0.72089l0.35703,-0.77428l10,-17l0.71689,-0.98036l0.61306,-1.04843l15.0636,-20.71245l16.07097,-29.30589l15.6148,-30.40777l-7.34998,1.68757l-6.69999,-2.58932l-6.93413,-1.87409l-7.42187,-8.59375l-0.6427,-2.01992l-1.61145,-2.01702l-0.32448,-4.06732l-0.15575,-0.48949l-0.39062,-3.90625v-2l0.0201,-0.201l-0.05226,-0.65501l0.00509,-0.01512l-0.10779,-0.8623l0.47257,-1.64371l0.05291,-0.5291l1.0288,-3.23337l0.93754,-3.26101l0.24947,-0.46958l0.51857,-1.62979l0.90227,-1.04473l0.17147,-0.32277l1.79611,-2.69417l4.43571,-7.09714l10.66404,-19.38916l1.11974,-1.62794l1.05185,-1.67261l14,-18l0.37557,-0.39459l0.30975,-0.44811l32.79152,-38.57825l10.44456,-16.82735l-26.70741,18.97632l-0.45075,0.25694l-0.40472,0.32464l-17.80131,11.57085l-0.14572,0.14572l-3.03835,2.48592l-8.01019,4.1432l-11.32476,0.82864l-12.98204,-7.45777l-7.45777,-12.98204l0.82864,-11.32476l4.1432,-8.01019l2.48592,-3.03835l5,-5l1.37219,-1.1227l1.30548,-1.19963l4,-3l0.42654,-0.25791l0.38014,-0.32241l28.92821,-19.95049l18.70672,-13.09471l17.88852,-16.00552l2.16899,-1.58221l0.20406,-0.19462l0.40958,-0.25301l0.38894,-0.28372l0.25727,-0.11546l2.2841,-1.41095l121,-59l0.25041,-0.09255l0.23006,-0.13544l10.70299,-4.93984l0.27346,-0.23617l0.76703,-0.24406l1.25651,-0.57993l3.71041,-1.28227l1.45882,-0.18235l1.40097,-0.44576l2.9897,-0.29897l4.3342,-4.81577l2.04815,-1.86381l0.17877,-0.21047l0.34966,-0.2704l0.32692,-0.29749l0.23827,-0.13958l2.19062,-1.69408l16,-10l1.06514,-0.5263l1.0045,-0.63442l4,-2l3.66855,-1.39754l8.90933,-1.39754l11.00565,2.79508l3.127,3.51101l27.07593,-34.67873l1.64575,-1.72265l1.63112,-1.7365l37.68864,-32.85676l1.73605,-1.23243l0.19283,-0.18762l0.64764,-0.40903l0.44475,-0.31573l0.95399,-1.10462l1.60825,-0.43466l1.66454,-0.83227l3.66855,-1.39754l6.95224,-1.09055l0.55955,-0.15123l0.14857,0.04015l1.24898,-0.19592l11.00565,2.79508l0.8362,0.93889l1.21373,0.32804l7.42188,8.59375l0.38332,1.20474l0.10235,0.11492l0.11498,0.56811l2.13372,6.70598l0.39063,3.90625v1.86101l0.33046,1.63285l-0.33046,0.7931v1.71305l-0.24196,2.41963l0.012,0.28691l-0.10041,0.59716l-0.06025,0.60254l-0.08707,0.27365l-0.40321,2.39804l-12,44l-0.00745,0.01945l-0.00349,0.02054l-14,51l-0.66884,1.73688l-0.58058,1.76834l-5.96369,13.4664l1.79382,1.5696l2.76426,0.7471l5.90902,6.84202l0.43912,0.38423l0.06828,0.20328l1.00546,1.16422l2.73438,8.59375l0.19601,1.96014l0.24434,0.72746l3.17219,-1.18957l3.79469,-1.00582l0.55121,-0.02798l0.52594,-0.16734l3.90625,-0.39062h3l3.90625,0.39063l8.59375,2.73438l0.42702,0.36879l1.52611,0.41246l3.07736,3.56326l3.56326,3.07736l0.03797,0.14049l21.29035,-5.80646l0.85043,-0.14299l0.8246,-0.25243l5,-1l2.45169,-0.24036l2.45122,-0.24512h3.68368l8.78957,-7.86435l0.57906,-0.77811l1.44707,-0.8415l2.00231,-1.46063l2.23183,-1.00162l2.11472,-1.22975l2.35392,-0.77572l1.52721,-0.6854l0.96978,-0.01701l7.87758,-1.75057l1.39962,-0.16735l0.1174,-0.03735l1.19174,-0.11917l1.18922,-0.14219l0.1227,0.011l1.40259,-0.14026h8l1.49515,0.14951l8.82718,-8.82718l1.9066,-1.55994l1.90357,-1.56364l6,-4l3.46688,-1.84178l0.91287,-0.26245l0.83107,-0.45991l3.75379,-1.14912l5,-1l2.45169,-0.24036l2.45122,-0.24512h8l3.57184,0.35718l1.89363,0.04822l3.43441,1.57411l3.60012,1.14549l1.43361,1.23812l2.88321,2.13838l10.01101,9.10092l0.78689,0.45776l0.92647,1.24537l1.90325,2.11261l1.16526,2.01211l1.38785,1.86555l1.18853,2.58319l0.77788,1.3432l0.10954,0.90374l20.56493,59.73622l0.90218,3.82066l0.0193,0.82091l0.21055,0.79368l0.18967,3.72116l8.40054,16.80108l0.86567,2.27239l0.13905,0.25126l0.17725,0.57902l0.21557,0.56588l0.0445,0.2837l0.71179,2.32519l6,30l0.24036,2.45169l0.24512,2.45122v21l-0.12407,1.2407v1.24689l-1.73278,17.32781l0.05127,0.26667l-0.14416,0.66222l-0.17433,1.74331l-0.77737,3.848l-0.53529,1.2393l-0.28715,1.31907l-1.61056,3.58015l-0.87419,1.51833l-0.26873,0.62217l-0.19706,0.18684l-17.66002,30.67267l-0.40826,0.56937l7.52697,16.66685l0.2613,0.77671l0.36266,0.73487l6,16l0.61914,2.33584l0.63248,2.33227l3,18l0.12721,1.93991l0.05545,0.23873l0.01727,0.87018l0.05695,0.86849l-0.0349,0.24259l0.03857,1.9437l-1.77503,22.18783l0.5488,0.63545l2.26898,2.20766l0.3378,0.81072l0.57406,0.6647l0.95987,3.01673l2.49559,5.98941l-0.45501,2.2483l0.12456,1.24556v2l-0.08886,0.88855l0.02532,0.89262l-1,14l-0.35112,2.03354l-0.00358,0.26165l-0.17673,0.78264l-0.13652,0.79065l-0.09691,0.24307l-0.45454,2.01295l-6,18l-0.50919,1.13589l-0.01568,0.06893l-0.54681,1.18585l-0.53416,1.1916l-0.04164,0.05713l-0.52124,1.13041l-6.01273,10.22165l-0.7755,5.55775l-0.46231,1.9031l-0.38097,1.92104l-7,23l-0.80845,1.93854l-0.74772,1.96276l-1,2l-0.13258,0.20992l-0.3531,1.10974l-1.29435,1.49872l-0.31628,0.50078l-1.03414,1.06286l-4.7771,5.53138l-2.25179,0.60859l-8.70748,3.62811l-2.69701,-0.54582l-0.79685,0.21537l-5.54774,-1.49939l-5.6326,-1.13993l-0.55279,-0.49233l-4.39936,2.93291l-0.32277,0.17147l-1.04473,0.90227l-1.62979,0.51857l-0.46958,0.24947l-3.26101,0.93754l-3.23337,1.0288l-0.5291,0.05291l-1.64371,0.47257l-1.36976,-0.17122l-0.36368,0.03637h-4l-1.24556,-0.12456l-2.2483,0.45501l-5.98941,-2.49559l-3.01673,-0.95987l-0.6647,-0.57406l-0.81072,-0.3378l-2.20766,-2.26898l-4.91067,-4.24103l-0.59849,-2.21443l-0.66844,-1.05836l-0.05113,-0.10226l-14.35278,36.14775l-0.93258,1.8017l-0.8655,1.83487l-12,20l-2.34471,3.14861l-4.80615,4.23512l-1.88328,2.11456l-5.48602,1.39328l-5.37636,1.76986l-2.72411,-0.77289l-6.32849,-0.9927l-3.66855,-1.39754l-2,-1l-1.05836,-0.66844l-2.21443,-0.59849l-0.78934,-0.91398l-17.66643,13.01737l-1.63798,1.8966l-2.30383,0.62266l-0.69579,0.4127l-8.54048,2.89648l-2.33753,-0.18112l-0.5755,0.15554l-1.03812,-0.28057l-7.36995,-0.57106l-2.70669,-2.15235l-3.33837,-0.90226l-4.83159,-5.59447l-0.84168,-0.66931l-0.21617,-0.55557l-1.53244,-1.7744l-1.07912,-3.39153l-0.01471,-0.00714l-2.93407,-0.58681l-3.15183,-0.96485l-1.94527,-0.42467l-3.15614,-2.24959l-3.39116,-1.87666l-1.22241,-1.57166l-2.2303,-2.42709l-3,-4l-0.06333,-0.10475l-0.86549,-0.86849l-0.65875,-1.65235l-0.44368,-0.73378l-1.05286,-3.02004l-1.18442,-2.97091l-0.1459,-0.84499l-0.58558,-1.67968l0.08436,-1.2232l-0.02083,-0.12062l-2,-28l0.05941,-2.09422l-0.00669,-2.09506l0.67264,-6.9506l-16.50086,9.55313l-0.78803,0.68057l-1.69161,0.53824l-1.85877,0.84153l-2.55263,0.56209l-2.49074,0.79251l-2.03027,0.20303l-1.73364,0.38175l-1.02298,-0.19415h-1.1085l-0.61332,0.15576l-0.993,-0.15576h-0.40454l-3.90625,-0.39062l-1.77027,-0.56327l-1.83527,-0.28789l-3.66855,-1.39754l-0.36183,-0.18092l-0.95783,-0.30476l-0.47891,-0.41361l-0.13826,-0.06913l-10.30708,4.41732l-0.07574,0.06541l-0.29852,0.09498l-2.3535,1.00864l-3.74428,1.17971l-1.12263,0.10906l-1.07482,0.34199l-3.90625,0.39063h-2.56053l-0.3118,0.03029l-0.09539,-0.03029h-2.03228l-2.05208,-0.20521l-2.05789,-0.13494l-6,-1l-0.35537,-0.09637l-2.05117,0.1625l-1.61834,-0.91677l-15.8231,16.49642l-2.98591,2.54867l-0.03938,0.02142l-0.03136,0.03203l-3.26749,2.17598l-49,26l-2.85426,1.16715l-0.20695,0.11453l-0.29089,0.08905l-0.28158,0.11514l-0.23272,0.0423l-2.9486,0.90263l-10,2l-1.5969,0.15656l-1.90846,0.48469l-4.66829,-0.73228l-4.69647,-0.52183l-1.71369,-0.96976l-1.49943,-0.57121l-3.11059,-1.55529l-0.97642,-0.27069l-1.3595,-1.0876l-1.87266,-1.18273l-1.82338,-1.7741l-1.98656,-1.58925l-1.40587,-1.7115l-1.24782,-1.2141l-0.38971,-0.93531l-1.44841,-2.17261l-0.17147,-0.32277l-0.90227,-1.04473l-0.51857,-1.62979l-0.24947,-0.46958l-0.93754,-3.26101l-1.0288,-3.23337l-0.05291,-0.5291l-0.47257,-1.64371l0.17122,-1.36976l-0.03637,-0.36368v-5l0.21393,-2.13926l0.15578,-2.14427l2.92296,-16.80702l-1.78063,-0.79821l-1.5013,-1.09417l-1.65006,-0.85348l-3.03835,-2.48592l-0.09824,-0.09824l-28.71057,44.19492l-18.48518,34.19758l-0.31126,0.93377l-1.60584,3.58227l-5.31164,7.28806l-9.75859,5.80574l-14.9467,-0.86469l-12.47617,-8.27627l-4.32343,-10.49975l0.12353,-9.01743l0.86469,-3.82932l1,-3l0.35276,-0.78692l0.24737,-0.82613l5.70299,-13.85013l-3.67979,-3.178l-0.59849,-2.21443l-0.66844,-1.05836l-0.10071,-0.20143l-0.41361,-0.47891l-0.30476,-0.95783l-0.18092,-0.36183l-1.39754,-3.66855l-0.28789,-1.83527l-0.56327,-1.77027l-0.39062,-3.90625v-0.40454l-0.15576,-0.993l0.15576,-0.61332v-3.98913l0.08296,-0.82965l-0.02759,-0.83333l0.31378,-4.70664l-8.98417,8.34244l-0.58538,0.8032l-1.81151,1.07773l-1.10509,0.83784l-1.45757,0.68677l-5.38442,3.20339l-1.25961,-0.07287l-0.05645,0.0266l-11.34767,0.40892l-1.93186,-1.20703l-0.35111,-0.02031l-5.16137,-3.42388l-5.25277,-3.28193l-0.16378,-0.31123l-1.89825,-1.25923l-4.32343,-10.49975l0.00085,-0.0624l-0.57257,-1.08806l-4.55177,-1.34687l-5.35156,-1.08305l-0.84152,-0.74948l-1.08057,-0.31974l-3.74242,-3.97574l-5.51583,-4.91253l-0.32943,-1.29714l-0.67419,-0.71622l-0.86865,-5.35871l-0.92281,-3.63357l0.16416,-1.04654l-0.18964,-1.1699l1.01165,-4.07041l0.41137,-2.62247l0.69167,-1.81563l0.06052,-0.2435l0.14972,-0.30838l0.49564,-1.30104l1,-2l0.6194,-0.98071l0.01451,-0.03844l0.73469,-1.14779l0.72772,-1.15222l0.02865,-0.02945l0.62533,-0.97694l0.12967,-0.16399l4.78494,-7.77553l7.43586,-13.94223l5.11732,-10.43932zM231.53904,-72.79699l1.62855,-5.93258l-3.5623,4.56258z" fill="#f42a2a" stroke-width="0.5"/><text transform="translate(14.29023,147.99516) scale(0.92466,0.92466)" font-size="40" xml:space="preserve" fill="#3e2af5" fill-rule="nonzero" stroke="none" stroke-width="1" stroke-linecap="butt" stroke-linejoin="miter" stroke-miterlimit="10" stroke-dasharray="" stroke-dashoffset="0" font-family="Sans Serif" font-weight="normal" text-anchor="start" style="mix-blend-mode: normal"><tspan x="0" dy="0">Uh oh, you got caught!</tspan><tspan x="0" dy="46.150000000000006px"> </tspan><tspan x="0" dy="46.150000000000006px">Click the flag to try again!</tspan></text></g></g></svg>